<?xml version="1.0" encoding="UTF-8"?>
<svg id="Layer_1" xmlns="http://www.w3.org/2000/svg" xmlns:xlink="http://www.w3.org/1999/xlink" version="1.1" viewBox="0 0 100 100">
  <!-- Generator: Adobe Illustrator 29.1.0, SVG Export Plug-In . SVG Version: 2.1.0 Build 142)  -->
  <defs>
    <style>
      .st0 {
        fill: none;
      }

      .st1 {
        fill: #2a2a2a;
      }

      .st2 {
        clip-path: url(#clippath);
      }
    </style>
    <clipPath id="clippath">
      <rect class="st0" y="10.66" width="100" height="78.69"/>
    </clipPath>
  </defs>
  <g class="st2">
    <g>
      <path class="st1" d="M38.39,77.97c6.06.14,12.19-.18,18.23.16.59.51.51.97.64,1.71-2.44.3-5.03.14-7.49.14-3.59,0-7.21.11-10.79-.12-.57-.55-.49-1.13-.6-1.89h0Z"/>
      <path class="st1" d="M0,77.47l36.48.24c-.21,1.06-.54,3.25-.04,4.22.27.52.37.7.93.85,2.09.55,19.62.98,21.31,0,1.13-1.43.82-3.34.77-5.06,13.51-.07,27.03-.05,40.54.06-.39,1.47-.94,2.8-1.56,4.19-1.36,2.62-2.77,5.21-5.65,6.46-1.01.44-1.93.63-3.03.69-4.23.25-8.56.09-12.8.1l-23.58.05-28.2.02c-5.12,0-10.31.17-15.42-.06-1.49-.07-3.85-.17-5.2-.83C1.97,87.14.68,80.07,0,77.47h0Z"/>
      <path class="st1" d="M93.9,41.75l-.05-14.44c0-3.07.17-6.21,0-9.27-.06-1.06-.22-2.14-.6-3.15-.63-1.7-1.79-2.97-3.49-3.67-.75-.31-1.46-.36-2.26-.38-15.31-.42-30.71,0-46.04-.01l-19.5-.03c-3.32,0-6.78-.21-10.08.07-1.93.89-3.57,1.91-4.28,4.02-.57,1.7-.55,49.61-.22,54.4.08,1.16.31,2.06.9,3.07.86,1.49,1.86,2.13,3.52,2.55,3.69.95,8.21.47,12.02.48l16.72.02h32.11c5.54-.01,11.13.14,16.67-.03,1.7-.58,3.17-1.53,4-3.17.56-1.1.63-2.3.68-3.5.37-8.93-.06-18.02-.09-26.97h0ZM88.83,69.26c-.26,1.19-1.14,1.64-2.11,2.23-.6.08-1.2.14-1.81.17-3.94.24-7.97.09-11.92.09h-21.24s-22.89-.16-22.89-.16c-4.33-.02-8.86.25-13.17-.08-1.34-.11-2.78-.31-3.82-1.21-.32-.98-.42-1.95-.44-2.98-.07-3.63.13-7.29.15-10.92l-.02-22.53c0-3.05-.5-14.06.08-16.38.26-1.05.94-1.5,1.79-2.07,4.79-.22,9.63-.1,14.43-.1l24.26.04c10.69.07,21.49-.29,32.16.09,1.39.05,3.06.09,3.95,1.35.62.86.68,2.36.72,3.39.44,9.55-.06,19.88-.04,29.54,0,3.94.61,16.34-.09,19.55h0Z"/>
    </g>
  </g>
</svg>