<?xml version="1.0" encoding="UTF-8"?>
<svg id="Layer_1" xmlns="http://www.w3.org/2000/svg" xmlns:xlink="http://www.w3.org/1999/xlink" version="1.1" viewBox="0 0 100 100">
  <!-- Generator: Adobe Illustrator 29.1.0, SVG Export Plug-In . SVG Version: 2.1.0 Build 142)  -->
  <defs>
    <style>
      .st0 {
        fill: none;
      }

      .st1 {
        fill: #f15b22;
      }

      .st2 {
        clip-path: url(#clippath);
      }
    </style>
    <clipPath id="clippath">
      <rect class="st0" x="19.69" y=".5" width="60.61" height="99"/>
    </clipPath>
  </defs>
  <g class="st2">
    <g>
      <path class="st1" d="M80.25,79.7l-.03-24.45-.05-30.22c0-5.19.15-10.41-.03-15.59-.05-1.52-.19-3.28-.65-4.73-.44-1.38-1.88-2.63-3.16-3.21-1.01-.46-2.11-.69-3.21-.78-5.22-.46-10.91-.02-16.18-.03-10.28-.02-20.64-.23-30.91.1-2.01.37-3.62,1.1-4.84,2.81-.64.9-1.19,2.12-1.28,3.24-.42,5.46,0,11.27,0,16.77l-.03,34.93-.02,24.1c0,3.56-.48,7.87.2,11.31.28,1.41,1.32,3.33,2.54,4.13,1.28.84,3.43,1.07,4.95,1.18,6.15.46,12.6.09,18.78.08,9.4,0,18.85.21,28.24,0,2.01-.54,3.64-1.22,4.72-3.12.59-1.05.84-2.06.9-3.27.23-4.39.06-8.87.06-13.26h0ZM41.03,4.17c3.07-.04,15.99-.79,17.95.29.38.67.32,1.04.27,1.78-3.9.34-14.44.7-17.94-.16-.38-.7-.28-1.14-.28-1.91h0ZM53.89,92.16c0,.14-.02.27-.05.41-.02.14-.05.27-.09.4-.04.13-.08.26-.13.39-.57,1.44-1.53,1.97-2.89,2.55-.44-.02-.9-.04-1.33-.13-1.02-.21-2.17-.87-2.69-1.8-.52-.93-.65-1.9-.37-2.92.47-1.67,1.58-2.4,3.02-3.18.55.03,1.12.06,1.66.23.13.04.26.09.39.14.13.05.25.11.37.18.12.07.24.14.35.21.11.08.22.16.33.25.11.09.21.18.3.28.1.1.19.2.27.31.09.11.17.22.24.34.07.12.14.23.21.36.06.12.12.25.17.38.05.13.09.26.13.39.04.13.06.27.09.4.02.14.04.27.04.41,0,.14,0,.28,0,.41h0ZM23.6,85.05c-.62-9.42-.07-19.12-.03-28.58V10.13c17.57-.16,35.13-.16,52.69.01l.15,74.89-52.81.02h0Z"/>
      <path class="st1" d="M49.12,45.52c.31-.02.62-.04.93-.04,5.52.03,9.21,2.38,12.96,6.16-.94.95-1.95,1.8-2.96,2.66-2.22-1.41-4.36-2.83-6.89-3.63-.32-.07-.65-.13-.97-.18-4.25-.62-7.58.94-10.9,3.39-.95-.93-1.84-1.93-2.73-2.91,3.06-3.17,6.16-4.9,10.56-5.45h0Z"/>
      <path class="st1" d="M49.54,56.37c.92,0,2.01.16,2.87.48,1.39.52,2.58,1.62,3.18,2.98.7,1.59.63,3.41-.08,4.98-.93,2.06-2.34,2.92-4.38,3.69-1.53-.03-2.77-.12-4.11-.92-.17-.1-.33-.2-.49-.32-.16-.11-.31-.24-.46-.37-.15-.13-.29-.27-.42-.41-.13-.15-.26-.3-.37-.46-.12-.16-.23-.32-.33-.49-.1-.17-.19-.34-.27-.52-.08-.18-.16-.36-.22-.55-.06-.19-.12-.38-.16-.57-.05-.21-.09-.42-.11-.63-.03-.21-.04-.42-.05-.64,0-.21,0-.42.02-.64.02-.21.05-.42.08-.63.04-.21.09-.42.15-.62.06-.2.13-.4.21-.6.08-.2.17-.39.27-.58.1-.19.21-.37.33-.54,1.11-1.62,2.49-2.25,4.34-2.65h0Z"/>
      <path class="st1" d="M49.83,36.66c1.96-.1,4.05.1,5.97.51,5.14,1.08,10.07,3.53,12.98,8.05-1.03,1.12-2.14,2.17-3.23,3.24-3.41-4.09-7.38-5.7-12.47-6.73-7.08-.37-11.89,1.45-17.3,6.01-1.09-.99-2.06-2.08-3.06-3.16,4.95-4.72,10.28-7.42,17.11-7.91h0Z"/>
      <path class="st1" d="M46.54,27.74c1.24-.13,2.48-.2,3.73-.21,9.43-.15,17.44,3.43,24.17,9.97-1.03,1.26-2.2,2.38-3.35,3.53-4.5-4.71-10.25-7.15-16.6-8.12-1.47-.24-3.09-.31-4.58-.26-7.48.25-14.27,3.28-19.39,8.73-1.22-1.03-2.34-2.13-3.46-3.27,5.76-5.72,11.44-9.11,19.5-10.38Z"/>
    </g>
  </g>
</svg>