<?xml version="1.0" encoding="UTF-8"?>
<svg id="Layer_1" xmlns="http://www.w3.org/2000/svg" version="1.1" viewBox="0 0 100 100">
  <!-- Generator: Adobe Illustrator 29.1.0, SVG Export Plug-In . SVG Version: 2.1.0 Build 142)  -->
  <defs>
    <style>
      .st0 {
        fill: #f15b22;
      }
    </style>
  </defs>
  <path class="st0" d="M50,99.96c-1.01,0-1.98-.4-2.67-1.11-1.56-1.6-38.09-39.31-38.09-59.97S27.53.04,50,.04s40.76,17.42,40.76,38.84-36.53,58.37-38.09,59.96c-.69.71-1.66,1.11-2.67,1.11h0ZM50,6.99c-18.45,0-33.47,14.31-33.47,31.89,0,13.71,22.12,40.26,33.47,52.43,11.35-12.17,33.47-38.72,33.47-52.43,0-17.58-15.01-31.89-33.47-31.89Z"/>
  <path class="st0" d="M50,54.67c-10.12,0-18.35-7.84-18.35-17.48s8.23-17.49,18.35-17.49,18.35,7.84,18.35,17.49-8.23,17.48-18.35,17.48ZM50,26.64c-6.1,0-11.06,4.73-11.06,10.54s4.96,10.54,11.06,10.54,11.06-4.73,11.06-10.54-4.96-10.54-11.06-10.54Z"/>
</svg>